
<global>
amp_veltrack=0
ampeg_attack=0.01
ampeg_release=0.85
</global>

<group>
ampeg_attack=0.01
ampeg_release=0.35
group_label=PP
xf_cccurve=gain
xfin_hicc1=63
xfout_hicc1=127
xfout_locc1=64

<region>
hivel=127
key=A#4
loop_end=191613
loop_mode=loop_continuous
loop_start=76586
loop_xfade=23778
lovel=1
offset=7989
sample=Altos_Ooh_sustain_PP_A#4.opus
tune=-17
</region>

<region>
hivel=127
key=A4
loop_end=191613
loop_mode=loop_continuous
loop_start=76586
loop_xfade=23778
lovel=1
offset=805
sample=Altos_Ooh_sustain_PP_A4.opus
tune=-13
</region>

<region>
hivel=127
key=B4
loop_end=191613
loop_mode=loop_continuous
loop_start=76586
loop_xfade=23778
lovel=1
offset=6781
sample=Altos_Ooh_sustain_PP_B4.opus
tune=-15
</region>

<region>
hivel=127
key=C#4
loop_end=191613
loop_mode=loop_continuous
loop_start=76586
loop_xfade=23778
lovel=1
offset=3522
sample=Altos_Ooh_sustain_PP_C#4.opus
tune=-28
</region>

<region>
hivel=127
key=C#5
loop_end=191613
loop_mode=loop_continuous
loop_start=76586
loop_xfade=23778
lovel=1
offset=11702
sample=Altos_Ooh_sustain_PP_C#5.opus
tune=-12
</region>

<region>
hivel=127
key=C5
loop_end=191613
loop_mode=loop_continuous
loop_start=76586
loop_xfade=23778
lovel=1
offset=6956
sample=Altos_Ooh_sustain_PP_C5.opus
tune=-18
</region>

<region>
hivel=127
key=D#4
loop_end=191613
loop_mode=loop_continuous
loop_start=76586
loop_xfade=23778
lovel=1
offset=3517
sample=Altos_Ooh_sustain_PP_D#4.opus
tune=-28
</region>

<region>
hivel=127
key=D#5
loop_end=191613
loop_mode=loop_continuous
loop_start=76586
loop_xfade=23778
lovel=1
offset=11831
sample=Altos_Ooh_sustain_PP_D#5.opus
tune=-6
</region>

<region>
hivel=127
key=D4
loop_end=191613
loop_mode=loop_continuous
loop_start=76586
loop_xfade=23778
lovel=1
offset=8555
sample=Altos_Ooh_sustain_PP_D4.opus
tune=-23
</region>

<region>
hivel=127
key=D5
loop_end=191613
loop_mode=loop_continuous
loop_start=76586
loop_xfade=23778
lovel=1
offset=6460
sample=Altos_Ooh_sustain_PP_D5.opus
tune=-10
</region>

<region>
hivel=127
key=E4
loop_end=193544
loop_mode=loop_continuous
loop_start=77358
loop_xfade=24017
lovel=1
offset=2340
sample=Altos_Ooh_sustain_PP_E4.opus
tune=-20
</region>

<region>
hivel=127
key=E5
loop_end=191613
loop_mode=loop_continuous
loop_start=76586
loop_xfade=23778
lovel=1
offset=6659
sample=Altos_Ooh_sustain_PP_E5.opus
tune=-7
</region>

<region>
hivel=127
key=F#4
loop_end=191613
loop_mode=loop_continuous
loop_start=76586
loop_xfade=23778
lovel=1
sample=Altos_Ooh_sustain_PP_F#4.opus
tune=-12
</region>

<region>
hivel=127
key=F4
loop_end=191613
loop_mode=loop_continuous
loop_start=76586
loop_xfade=23778
lovel=1
sample=Altos_Ooh_sustain_PP_F4.opus
tune=-31
</region>

<region>
hikey=A5
hivel=127
lokey=F5
loop_end=191613
loop_mode=loop_continuous
loop_start=76586
loop_xfade=23778
lovel=1
offset=7094
pitch_keycenter=F5
sample=Altos_Ooh_sustain_PP_F5.opus
tune=-15
</region>

<region>
hivel=127
key=G#4
loop_end=191613
loop_mode=loop_continuous
loop_start=76586
loop_xfade=23778
lovel=1
offset=7895
sample=Altos_Ooh_sustain_PP_G#4.opus
tune=-18
</region>

<region>
hivel=127
key=G4
loop_end=191613
loop_mode=loop_continuous
loop_start=76586
loop_xfade=23778
lovel=1
offset=6282
sample=Altos_Ooh_sustain_PP_G4.opus
tune=-12
</region>

<region>
hivel=127
key=A#3
loop_end=193544
loop_mode=loop_continuous
loop_start=77358
loop_xfade=24017
lovel=1
offset=3645
sample=Altos_Ooh_sustain_PP_A#3.opus
tune=-33
</region>

<region>
hivel=127
key=A3
loop_end=193544
loop_mode=loop_continuous
loop_start=77358
loop_xfade=24017
lovel=1
offset=3525
sample=Altos_Ooh_sustain_PP_A3.opus
tune=-38
</region>

<region>
hivel=127
key=B3
loop_end=193544
loop_mode=loop_continuous
loop_start=77358
loop_xfade=24017
lovel=1
offset=2989
sample=Altos_Ooh_sustain_PP_B3.opus
tune=-22
</region>

<region>
hikey=C4
hivel=127
lokey=C4
loop_end=191613
loop_mode=loop_continuous
loop_start=76586
loop_xfade=23778
lovel=1
offset=4001
sample=Altos_Ooh_sustain_PP_C4.opus
tune=-23
</region>

<region>
hivel=127
key=G#3
loop_end=193544
loop_mode=loop_continuous
loop_start=77358
loop_xfade=24017
lovel=1
offset=3265
sample=Altos_Ooh_sustain_PP_G#3.opus
tune=-25
</region>

<region>
hikey=G3
hivel=127
lokey=D3
loop_end=193544
loop_mode=loop_continuous
loop_start=77358
loop_xfade=24017
lovel=1
pitch_keycenter=G3
sample=Altos_Ooh_sustain_PP_G3.opus
tune=-22
</region>
</group>

<group>
ampeg_attack=0.01
ampeg_release=0.35
group_label=FF
xf_cccurve=gain
xfin_hicc1=127
xfin_locc1=64
xfout_hicc1=127
xfout_locc1=127

<region>
hivel=127
key=A#3
loop_end=193544
loop_mode=loop_continuous
loop_start=77358
loop_xfade=24017
lovel=1
offset=4879
sample=Altos_Ooh_sustain_FF_A#3.opus
tune=-20
</region>

<region>
hivel=127
key=A#4
loop_end=188892
loop_mode=loop_continuous
loop_start=75499
loop_xfade=23440
lovel=1
offset=3264
sample=Altos_Ooh_sustain_FF_A#4.opus
tune=-21
</region>

<region>
hivel=127
key=A3
loop_end=193544
loop_mode=loop_continuous
loop_start=77358
loop_xfade=24017
lovel=1
offset=5905
sample=Altos_Ooh_sustain_FF_A3.opus
tune=-21
</region>

<region>
hivel=127
key=A4
loop_end=187354
loop_mode=loop_continuous
loop_start=74884
loop_xfade=23249
lovel=1
offset=3565
sample=Altos_Ooh_sustain_FF_A4.opus
tune=-13
</region>

<region>
hivel=127
key=B3
loop_end=193544
loop_mode=loop_continuous
loop_start=77358
loop_xfade=24017
lovel=1
offset=3610
sample=Altos_Ooh_sustain_FF_B3.opus
tune=-14
</region>

<region>
hivel=127
key=B4
loop_end=189755
loop_mode=loop_continuous
loop_start=75844
loop_xfade=23547
lovel=1
offset=2993
sample=Altos_Ooh_sustain_FF_B4.opus
tune=-10
</region>

<region>
hivel=127
key=C#4
loop_end=191613
loop_mode=loop_continuous
loop_start=76586
loop_xfade=23778
lovel=1
offset=8758
sample=Altos_Ooh_sustain_FF_C#4.opus
tune=-8
</region>

<region>
hivel=127
key=C#5
loop_end=189156
loop_mode=loop_continuous
loop_start=75605
loop_xfade=23473
lovel=1
offset=5402
sample=Altos_Ooh_sustain_FF_C#5.opus
tune=-25
</region>

<region>
hikey=C4
hivel=127
lokey=C4
loop_end=191613
loop_mode=loop_continuous
loop_start=76586
loop_xfade=23778
lovel=1
offset=3822
sample=Altos_Ooh_sustain_FF_C4.opus
tune=-27
</region>

<region>
hivel=127
key=C5
loop_end=187666
loop_mode=loop_continuous
loop_start=75009
loop_xfade=23288
lovel=1
offset=3313
sample=Altos_Ooh_sustain_FF_C5.opus
tune=-14
</region>

<region>
hivel=127
key=D#4
loop_end=191613
loop_mode=loop_continuous
loop_start=76586
loop_xfade=23778
lovel=1
offset=7977
sample=Altos_Ooh_sustain_FF_D#4.opus
tune=-21
</region>

<region>
hivel=127
key=D#5
loop_end=188016
loop_mode=loop_continuous
loop_start=75149
loop_xfade=23331
lovel=1
offset=1790
sample=Altos_Ooh_sustain_FF_D#5.opus
tune=-11
</region>

<region>
hivel=127
key=D4
loop_end=191613
loop_mode=loop_continuous
loop_start=76586
loop_xfade=23778
lovel=1
offset=3932
sample=Altos_Ooh_sustain_FF_D4.opus
tune=-8
</region>

<region>
hivel=127
key=D5
loop_end=187968
loop_mode=loop_continuous
loop_start=75129
loop_xfade=23326
lovel=1
offset=588
sample=Altos_Ooh_sustain_FF_D5.opus
tune=-16
</region>

<region>
hivel=127
key=E4
loop_end=193544
loop_mode=loop_continuous
loop_start=77358
loop_xfade=24017
lovel=1
offset=5096
sample=Altos_Ooh_sustain_FF_E4.opus
tune=-3
</region>

<region>
hivel=127
key=E5
loop_end=188034
loop_mode=loop_continuous
loop_start=75156
loop_xfade=23334
lovel=1
offset=7647
sample=Altos_Ooh_sustain_FF_E5.opus
tune=-6
</region>

<region>
hivel=127
key=F#4
loop_end=191613
loop_mode=loop_continuous
loop_start=76586
loop_xfade=23778
lovel=1
offset=7076
sample=Altos_Ooh_sustain_FF_F#4.opus
tune=-4
</region>

<region>
hivel=127
key=F4
loop_end=191613
loop_mode=loop_continuous
loop_start=76586
loop_xfade=23778
lovel=1
offset=6153
sample=Altos_Ooh_sustain_FF_F4.opus
tune=-19
</region>

<region>
hikey=A5
hivel=127
lokey=F5
loop_end=190162
loop_mode=loop_continuous
loop_start=76007
loop_xfade=23598
lovel=1
offset=7282
pitch_keycenter=F5
sample=Altos_Ooh_sustain_FF_F5.opus
tune=-14
</region>

<region>
hivel=127
key=G#3
loop_end=193544
loop_mode=loop_continuous
loop_start=77358
loop_xfade=24017
lovel=1
offset=3293
sample=Altos_Ooh_sustain_FF_G#3.opus
tune=-11
</region>

<region>
hivel=127
key=G#4
loop_end=189836
loop_mode=loop_continuous
loop_start=75876
loop_xfade=23557
lovel=1
offset=5017
sample=Altos_Ooh_sustain_FF_G#4.opus
tune=-16
</region>

<region>
hikey=G3
hivel=127
lokey=D3
loop_end=193544
loop_mode=loop_continuous
loop_start=77358
loop_xfade=24017
lovel=1
offset=2529
pitch_keycenter=G3
sample=Altos_Ooh_sustain_FF_G3.opus
tune=-2
</region>

<region>
hivel=127
key=G4
loop_end=191613
loop_mode=loop_continuous
loop_start=76586
loop_xfade=23778
lovel=1
offset=8230
sample=Altos_Ooh_sustain_FF_G4.opus
tune=+1
</region>
</group>

<group>
ampeg_attack=0.02
ampeg_release=3.5
group_label=PP_Rel
trigger=release
xf_cccurve=gain
xfin_hicc1=63
xfout_hicc1=127
xfout_locc1=64

<region>
hivel=127
key=A#4
lovel=1
offset=192000
sample=Altos_Ooh_sustain_PP_A#4.opus
tune=-17
</region>

<region>
hivel=127
key=A4
lovel=1
offset=192000
sample=Altos_Ooh_sustain_PP_A4.opus
tune=-13
</region>

<region>
hivel=127
key=B4
lovel=1
offset=192000
sample=Altos_Ooh_sustain_PP_B4.opus
tune=-15
</region>

<region>
hivel=127
key=C#4
lovel=1
offset=192000
sample=Altos_Ooh_sustain_PP_C#4.opus
tune=-28
</region>

<region>
hivel=127
key=C#5
lovel=1
offset=192000
sample=Altos_Ooh_sustain_PP_C#5.opus
tune=-12
</region>

<region>
hivel=127
key=C5
lovel=1
offset=192000
sample=Altos_Ooh_sustain_PP_C5.opus
tune=-18
</region>

<region>
hivel=127
key=D#4
lovel=1
offset=192000
sample=Altos_Ooh_sustain_PP_D#4.opus
tune=-28
</region>

<region>
hivel=127
key=D#5
lovel=1
offset=192000
sample=Altos_Ooh_sustain_PP_D#5.opus
tune=-6
</region>

<region>
hivel=127
key=D4
lovel=1
offset=192000
sample=Altos_Ooh_sustain_PP_D4.opus
tune=-23
</region>

<region>
hivel=127
key=D5
lovel=1
offset=192000
sample=Altos_Ooh_sustain_PP_D5.opus
tune=-10
</region>

<region>
hivel=127
key=E4
lovel=1
offset=192000
sample=Altos_Ooh_sustain_PP_E4.opus
tune=-20
</region>

<region>
hivel=127
key=E5
lovel=1
offset=192000
sample=Altos_Ooh_sustain_PP_E5.opus
tune=-7
</region>

<region>
hivel=127
key=F#4
lovel=1
offset=192000
sample=Altos_Ooh_sustain_PP_F#4.opus
tune=-12
</region>

<region>
hivel=127
key=F4
lovel=1
offset=192000
sample=Altos_Ooh_sustain_PP_F4.opus
tune=-31
</region>

<region>
hikey=A5
hivel=127
lokey=F5
lovel=1
offset=192000
pitch_keycenter=F5
sample=Altos_Ooh_sustain_PP_F5.opus
tune=-15
</region>

<region>
hivel=127
key=G#4
lovel=1
offset=192000
sample=Altos_Ooh_sustain_PP_G#4.opus
tune=-18
</region>

<region>
hivel=127
key=G4
lovel=1
offset=192000
sample=Altos_Ooh_sustain_PP_G4.opus
tune=-12
</region>

<region>
hivel=127
key=A#3
lovel=1
offset=192000
sample=Altos_Ooh_sustain_PP_A#3.opus
tune=-33
</region>

<region>
hivel=127
key=A3
lovel=1
offset=192000
sample=Altos_Ooh_sustain_PP_A3.opus
tune=-38
</region>

<region>
hivel=127
key=B3
lovel=1
offset=192000
sample=Altos_Ooh_sustain_PP_B3.opus
tune=-22
</region>

<region>
hikey=C4
hivel=127
lokey=C4
lovel=1
offset=192000
sample=Altos_Ooh_sustain_PP_C4.opus
tune=-23
</region>

<region>
hivel=127
key=G#3
lovel=1
offset=192000
sample=Altos_Ooh_sustain_PP_G#3.opus
tune=-25
</region>

<region>
hikey=G3
hivel=127
lokey=D3
lovel=1
offset=192000
pitch_keycenter=G3
sample=Altos_Ooh_sustain_PP_G3.opus
tune=-22
</region>
</group>

<group>
ampeg_attack=0.02
ampeg_release=3.5
group_label=FF_Rel
trigger=release
xf_cccurve=gain
xfin_hicc1=127
xfin_locc1=64
xfout_hicc1=127
xfout_locc1=127

<region>
hivel=127
key=A#3
lovel=1
offset=192000
sample=Altos_Ooh_sustain_FF_A#3.opus
tune=-20
</region>

<region>
hivel=127
key=A#4
lovel=1
offset=192000
sample=Altos_Ooh_sustain_FF_A#4.opus
tune=-21
</region>

<region>
hivel=127
key=A3
lovel=1
offset=192000
sample=Altos_Ooh_sustain_FF_A3.opus
tune=-21
</region>

<region>
hivel=127
key=A4
lovel=1
offset=192000
sample=Altos_Ooh_sustain_FF_A4.opus
tune=-13
</region>

<region>
hivel=127
key=B3
lovel=1
offset=192000
sample=Altos_Ooh_sustain_FF_B3.opus
tune=-14
</region>

<region>
hivel=127
key=B4
lovel=1
offset=192000
sample=Altos_Ooh_sustain_FF_B4.opus
tune=-10
</region>

<region>
hivel=127
key=C#4
lovel=1
offset=192000
sample=Altos_Ooh_sustain_FF_C#4.opus
tune=-8
</region>

<region>
hivel=127
key=C#5
lovel=1
offset=192000
sample=Altos_Ooh_sustain_FF_C#5.opus
tune=-25
</region>

<region>
hikey=C4
hivel=127
lokey=C4
lovel=1
offset=192000
sample=Altos_Ooh_sustain_FF_C4.opus
tune=-27
</region>

<region>
hivel=127
key=C5
lovel=1
offset=192000
sample=Altos_Ooh_sustain_FF_C5.opus
tune=-14
</region>

<region>
hivel=127
key=D#4
lovel=1
offset=192000
sample=Altos_Ooh_sustain_FF_D#4.opus
tune=-21
</region>

<region>
hivel=127
key=D#5
lovel=1
offset=192000
sample=Altos_Ooh_sustain_FF_D#5.opus
tune=-11
</region>

<region>
hivel=127
key=D4
lovel=1
offset=192000
sample=Altos_Ooh_sustain_FF_D4.opus
tune=-8
</region>

<region>
hivel=127
key=D5
lovel=1
offset=192000
sample=Altos_Ooh_sustain_FF_D5.opus
tune=-16
</region>

<region>
hivel=127
key=E4
lovel=1
offset=192000
sample=Altos_Ooh_sustain_FF_E4.opus
tune=-3
</region>

<region>
hivel=127
key=E5
lovel=1
offset=192000
sample=Altos_Ooh_sustain_FF_E5.opus
tune=-6
</region>

<region>
hivel=127
key=F#4
lovel=1
offset=192000
sample=Altos_Ooh_sustain_FF_F#4.opus
tune=-4
</region>

<region>
hivel=127
key=F4
lovel=1
offset=192000
sample=Altos_Ooh_sustain_FF_F4.opus
tune=-19
</region>

<region>
hikey=A5
hivel=127
lokey=F5
lovel=1
offset=192000
pitch_keycenter=F5
sample=Altos_Ooh_sustain_FF_F5.opus
tune=-14
</region>

<region>
hivel=127
key=G#3
lovel=1
offset=192000
sample=Altos_Ooh_sustain_FF_G#3.opus
tune=-11
</region>

<region>
hivel=127
key=G#4
lovel=1
offset=192000
sample=Altos_Ooh_sustain_FF_G#4.opus
tune=-16
</region>

<region>
hikey=G3
hivel=127
lokey=D3
lovel=1
offset=192000
pitch_keycenter=G3
sample=Altos_Ooh_sustain_FF_G3.opus
tune=-2
</region>

<region>
hivel=127
key=G4
lovel=1
offset=192000
sample=Altos_Ooh_sustain_FF_G4.opus
tune=+1
</region>
</group>